HIERARCHY
ROOT Hips
{
  OFFSET 0 89.5177 0.535
  CHANNELS 6 Xposition Yposition Zposition Zrotation Xrotation Yrotation
  JOINT Spine
  {
    OFFSET 12.0259 -0.162855 1.69034e-005
    CHANNELS 3 Zrotation Xrotation Yrotation
    JOINT Spine1
    {
      OFFSET 15.3169 -0.0121922 0
      CHANNELS 3 Zrotation Xrotation Yrotation
      JOINT Spine2
      {
        OFFSET 15.3176 -0.0121908 0
        CHANNELS 3 Zrotation Xrotation Yrotation
        JOINT Neck
        {
          OFFSET 19.9142 1.56338 0
          CHANNELS 3 Zrotation Xrotation Yrotation
          JOINT Head
          {
            OFFSET 6.92651 0 0
            CHANNELS 3 Zrotation Xrotation Yrotation
            End Site
            {
              OFFSET 20.7666 0 0
            }
          }
          JOINT LeftShoulder
          {
            OFFSET -6.20654 0.708824 7.28219
            CHANNELS 3 Zrotation Xrotation Yrotation
            JOINT LeftArm
            {
              OFFSET 14.108 0 -1.52588e-005
              CHANNELS 3 Zrotation Xrotation Yrotation
              JOINT LeftForeArm
              {
                OFFSET 28.5802 0 0
                CHANNELS 3 Zrotation Xrotation Yrotation
                JOINT LeftHand
                {
                  OFFSET 27.092 0 0
                  CHANNELS 3 Zrotation Xrotation Yrotation
                  End Site
                  {
                    OFFSET 9.55928 -0.186424 0.145352
                  }
                }
              }
            }
          }
          JOINT RightShoulder
          {
            OFFSET -6.20654 0.708866 -7.28218
            CHANNELS 3 Zrotation Xrotation Yrotation
            JOINT RightArm
            {
              OFFSET 14.108 0 1.52588e-005
              CHANNELS 3 Zrotation Xrotation Yrotation
              JOINT RightForeArm
              {
                OFFSET 28.5802 0 0
                CHANNELS 3 Zrotation Xrotation Yrotation
                JOINT RightHand
                {
                  OFFSET 27.092 0 0
                  CHANNELS 3 Zrotation Xrotation Yrotation
                  End Site
                  {
                    OFFSET 9.55929 -0.186417 -0.145354
                  }
                }
              }
            }
          }
        }
      }
    }
  }
  JOINT LeftUpLeg
  {
    OFFSET 0.005 -0.535 8.837
    CHANNELS 3 Zrotation Xrotation Yrotation
    JOINT LeftLeg
    {
      OFFSET 39.9035 0 0
      CHANNELS 3 Zrotation Xrotation Yrotation
      JOINT LeftFoot
      {
        OFFSET 39.6689 0 0
        CHANNELS 3 Zrotation Xrotation Yrotation
        JOINT LeftToe
        {
          OFFSET 10.1624 13.6296 0
          CHANNELS 3 Zrotation Xrotation Yrotation
          End Site
          {
            OFFSET 8.38147 0 0
          }
        }
      }
    }
  }
  JOINT RightUpLeg
  {
    OFFSET 0.005 -0.535 -8.837
    CHANNELS 3 Zrotation Xrotation Yrotation
    JOINT RightLeg
    {
      OFFSET 39.9035 0 0
      CHANNELS 3 Zrotation Xrotation Yrotation
      JOINT RightFoot
      {
        OFFSET 39.6689 0 0
        CHANNELS 3 Zrotation Xrotation Yrotation
        JOINT RightToe
        {
          OFFSET 10.1624 13.6296 0
          CHANNELS 3 Zrotation Xrotation Yrotation
          End Site
          {
            OFFSET 8.38147 0 0
          }
        }
      }
    }
  }
}
MOTION
Frames:	11
Frame Time:	0.0333333
230.471 89.8028 -30.051 -0.746952 -85.7217 -86.5826 1.69177 -1.27953 -1.06223 3.36081 -2.58918 -2.08685 3.36081 -2.58918 -2.08686 -8.30828e-012 -9.0191e-006 -5.27751e-005 11.6145 0.485912 5.99853 -177.826 -15.0975 -81.7069 8.46215 -42.695 25.6246 -15.6026 3.18055e-015 -3.18055e-015 -57.6339 -32.7215 -46.7141 179.846 12.1672 90.7306 51.5859 61.2992 -69.5385 -7.04447 -1.59028e-015 -0 -51.4012 26.7578 43.6837 4.53007 -2.85654 177.365 -10.4833 7.95139e-016 -0 9.99073 6.9353 -14.534 90 -9.93923e-016 1.59028e-015 3.65925 5.19231 176.898 -15.2792 7.95139e-016 1.98785e-016 16.0964 -5.14635 5.12968 90 3.97569e-016 -3.18055e-015 
230.456 89.8052 -30.0218 -0.271245 -85.7032 -86.0938 1.70816 -1.27437 -1.06334 3.39366 -2.57919 -2.08885 3.39366 -2.57919 -2.08886 -8.30748e-012 -9.0191e-006 -5.27751e-005 11.7017 0.521577 5.92009 -177.822 -15.1193 -81.7052 8.46185 -42.6955 25.7038 -15.5876 6.36111e-015 -1.59028e-015 -57.6448 -32.75 -46.7472 179.847 12.1438 90.7281 51.4275 61.252 -69.4196 -7.05992 4.77083e-015 -1.19271e-015 -51.454 26.7732 43.7538 4.528 -2.89463 177.357 -10.4732 -3.97569e-016 -4.96962e-016 9.98115 6.97515 -14.6239 90 2.48481e-015 -1.59028e-015 3.67256 5.17681 176.88 -15.2578 0 -1.98785e-016 16.0605 -5.12468 5.10232 90 -9.44227e-016 -1.59028e-015 
230.441 89.8056 -29.9963 0.640089 -85.6863 -85.1749 1.72118 -1.27386 -1.06529 3.41989 -2.57318 -2.09045 3.41989 -2.57318 -2.09045 -8.30748e-012 -9.0191e-006 -5.27751e-005 11.841 0.528332 5.92573 -177.826 -15.0921 -81.7048 8.43251 -42.6603 25.7008 -15.5503 3.18055e-015 2.38542e-015 -57.6049 -32.5829 -46.5521 179.845 12.1512 90.7368 51.312 61.1672 -69.3194 -7.13588 3.18055e-015 3.97569e-016 -51.4296 26.7847 43.735 4.50683 -2.94362 177.345 -10.4852 -3.97569e-016 1.98785e-016 9.96893 6.97859 -14.6366 90 -1.49089e-015 -3.18055e-015 3.65351 5.08061 176.864 -15.2944 0 1.98785e-016 16.0724 -5.14411 5.12041 90 8.44835e-016 -0 
230.428 89.8057 -29.9753 1.61661 -85.6782 -84.1866 1.7288 -1.27347 -1.06652 3.435 -2.57848 -2.09201 3.435 -2.57848 -2.09202 -8.30669e-012 -9.0191e-006 -5.27751e-005 12.0224 0.540731 5.95021 -177.839 -15.0732 -81.7435 8.47175 -42.6371 25.754 -15.6175 0 2.38542e-015 -57.6099 -32.6942 -46.6551 179.842 12.1508 90.7522 51.6243 61.2495 -69.6232 -7.08611 -6.36111e-015 3.97569e-016 -51.4216 26.7806 43.741 4.47935 -2.99992 177.328 -10.4962 3.97569e-016 -0 9.95975 6.99123 -14.6587 90 9.93923e-016 -1.59028e-015 3.6683 5.04793 176.848 -15.2647 7.95139e-016 -7.95139e-016 16.0477 -5.1182 5.07949 90 -1.01877e-015 1.59028e-015 
230.423 89.8056 -29.959 2.53552 -85.6748 -83.2651 1.73312 -1.27317 -1.06633 3.44325 -2.58841 -2.09414 3.44325 -2.58841 -2.09415 -8.3051e-012 -9.0191e-006 -5.27751e-005 12.2196 0.539543 5.98069 -177.834 -15.0991 -81.7375 8.38672 -42.6379 25.6882 -15.6319 6.36111e-015 2.38542e-015 -57.7181 -32.714 -46.7883 179.838 12.1667 90.7684 51.7524 61.2739 -69.7665 -7.09291 -3.18055e-015 3.97569e-016 -51.3477 26.7849 43.6571 4.46687 -3.06929 177.326 -10.4778 3.97569e-016 6.95746e-016 9.94097 6.99018 -14.645 90 -1.78906e-015 3.18055e-015 3.66868 4.98407 176.848 -15.2483 7.95139e-016 1.98785e-016 16.0124 -5.11061 5.0787 90 -1.49089e-016 1.59028e-015 
230.423 89.8053 -29.9381 3.3506 -85.6853 -82.4483 1.73416 -1.27296 -1.06844 3.4452 -2.58987 -2.09918 3.4452 -2.58987 -2.09919 -8.30589e-012 -9.0191e-006 -5.27751e-005 12.4004 0.518963 6.0413 -177.848 -15.0946 -81.7899 8.36033 -42.6439 25.6642 -15.6395 -3.18055e-015 5.56597e-015 -57.7045 -32.665 -46.7333 179.842 12.2 90.7481 51.6427 61.2641 -69.691 -7.12352 6.36111e-015 -1.19271e-015 -51.1647 26.7962 43.5047 4.42572 -3.11264 177.326 -10.4825 -3.97569e-016 -0 9.93482 6.99806 -14.6782 90 3.47873e-015 -1.59028e-015 3.6329 4.92057 176.85 -15.2674 7.95139e-016 1.98785e-016 16.0225 -5.10946 5.06615 90 -1.76421e-015 1.59028e-015 
230.424 89.8051 -29.9236 4.03046 -85.683 -81.7674 1.73849 -1.27281 -1.07315 3.45349 -2.59591 -2.11137 3.45349 -2.59591 -2.11138 -8.30748e-012 -9.0191e-006 -5.27751e-005 12.5554 0.533053 6.11802 -177.859 -15.1083 -81.8381 8.32788 -42.6485 25.6435 -15.6816 6.36111e-015 -3.97569e-015 -57.7346 -32.6346 -46.7416 179.847 12.2092 90.7234 51.7168 61.2759 -69.769 -7.13873 -1.59028e-015 -1.59028e-015 -51.182 26.7586 43.4744 4.40357 -3.13221 177.326 -10.4889 3.97569e-016 5.96354e-016 9.93476 7.01234 -14.7085 90 2.98177e-016 1.59028e-015 3.6426 4.90285 176.853 -15.2308 0 3.97569e-016 15.9793 -5.08366 5.0414 90 -1.2424e-015 -3.18055e-015 
230.424 89.8049 -29.9153 4.74966 -85.6635 -81.0471 1.74533 -1.27272 -1.07801 3.46708 -2.60002 -2.11706 3.46708 -2.60002 -2.11707 -8.30748e-012 -9.0191e-006 -5.27751e-005 12.7078 0.528905 6.17115 -177.861 -15.1143 -81.8493 8.24874 -42.6303 25.596 -15.7325 -3.18055e-015 3.18055e-015 -57.8109 -32.58 -46.7883 179.848 12.2204 90.7203 51.5635 61.1861 -69.633 -7.20247 3.18055e-015 -7.95139e-016 -51.1463 26.8244 43.5175 4.38971 -3.21239 177.326 -10.5115 -7.95139e-016 -1.19271e-015 9.93169 6.99684 -14.6875 90 1.39149e-015 3.18055e-015 3.6377 4.83704 176.856 -15.2633 0 -0 16.023 -5.09601 5.05234 90 4.22417e-016 -0 
230.425 89.8031 -29.911 5.26653 -85.6545 -80.53 1.74996 -1.27268 -1.08277 3.47636 -2.59603 -2.12654 3.47636 -2.59603 -2.12655 -8.30907e-012 -9.0191e-006 -5.27751e-005 12.8549 0.538083 6.22411 -177.867 -15.1251 -81.8688 8.20055 -42.6902 25.5937 -15.7572 1.59028e-014 -0 -57.8296 -32.5934 -46.8015 179.843 12.2161 90.7446 51.7034 61.0976 -69.7401 -7.23764 1.59028e-015 7.95139e-016 -51.0459 26.8875 43.4732 4.3969 -3.28665 177.326 -10.4875 7.95139e-016 1.98785e-016 9.91377 6.97467 -14.6215 90 -3.08116e-015 3.18055e-015 3.64533 4.81524 176.858 -15.2607 0 3.97569e-016 16.0089 -5.09086 5.04983 90 -1.46604e-015 -0 
230.426 89.8016 -29.9111 5.71053 -85.657 -80.0858 1.75413 -1.27266 -1.08527 3.47865 -2.59083 -2.13278 3.47865 -2.59083 -2.13279 -8.30907e-012 -9.0191e-006 -5.27751e-005 12.9858 0.580764 6.29015 -177.867 -15.1319 -81.8797 8.09391 -42.6709 25.5783 -15.8013 -9.54166e-015 -3.18055e-015 -57.9378 -32.5223 -46.8668 179.843 12.1952 90.7452 51.7756 61.0195 -69.7552 -7.22102 -3.18055e-015 3.97569e-016 -51.1485 26.8848 43.5517 4.35772 -3.2768 177.338 -10.5415 1.19271e-015 -3.97569e-016 9.94973 7.01219 -14.7169 90 5.26779e-015 3.18055e-015 3.60539 4.74528 176.861 -15.3268 -1.59028e-015 -3.97569e-016 16.0887 -5.12135 5.06274 90 -7.70291e-016 3.18055e-015 
230.426 89.8001 -29.9121 6.10331 -85.6637 -79.6928 1.75807 -1.27265 -1.08736 3.48425 -2.5773 -2.1359 3.48425 -2.5773 -2.13591 -8.30828e-012 -9.0191e-006 -5.27751e-005 13.0185 0.541818 6.25896 -177.869 -15.1347 -81.8828 8.03123 -42.6164 25.608 -15.8795 0 -7.95139e-016 -57.9828 -32.506 -46.9027 179.841 12.1613 90.7541 51.688 60.8851 -69.5396 -7.26082 -3.18055e-015 3.97569e-016 -51.0128 26.9014 43.463 4.34594 -3.28942 177.337 -10.5389 3.97569e-016 -0 9.94969 7.00871 -14.7067 90 9.93923e-016 1.59028e-015 3.64106 4.77874 176.861 -15.2392 -1.59028e-015 -7.95139e-016 15.9889 -5.07016 5.01404 90 7.95139e-016 -0 
